inDegrees=no
num_controls=7
num_derivatives=13
num_iterations=83
num_multipliers=7
num_parameters=0
num_slacks=7
num_states=26
objective=0.425859
objective_accelerations=0.058657
objective_balance=0.001415
objective_effort=0.014681
objective_height=0.345200
objective_ligament=0.005906
solver_duration=1174.803618
status=Solve_Succeeded
success=true
DataType=double
version=3
OpenSimVersion=4.5
endheader
time	/jointset/ground_pelvis/pelvis_tilt/value	/jointset/ground_pelvis/pelvis_tx/value	/jointset/ground_pelvis/pelvis_ty/value	/jointset/hip_l/hip_flexion_l/value	/jointset/hip_l/hip_adduction_l/value	/jointset/hip_l/hip_rotation_l/value	/jointset/back/lumbar_extension/value	/jointset/patellofemoral_l/patellar_flexion_l/value	/jointset/knee_l/knee_flexion_l/value	/jointset/knee_l/knee_adduction_l/value	/jointset/knee_l/knee_rotation_l/value	/jointset/ankle_l/ankle_angle_l/value	/jointset/subtalar_l/subtalar_angle_l/value	/jointset/ground_pelvis/pelvis_tilt/speed	/jointset/ground_pelvis/pelvis_tx/speed	/jointset/ground_pelvis/pelvis_ty/speed	/jointset/hip_l/hip_flexion_l/speed	/jointset/hip_l/hip_adduction_l/speed	/jointset/hip_l/hip_rotation_l/speed	/jointset/back/lumbar_extension/speed	/jointset/patellofemoral_l/patellar_flexion_l/speed	/jointset/knee_l/knee_flexion_l/speed	/jointset/knee_l/knee_adduction_l/speed	/jointset/knee_l/knee_rotation_l/speed	/jointset/ankle_l/ankle_angle_l/speed	/jointset/subtalar_l/subtalar_angle_l/speed	/forceset/tau_hip_flexion_l	/forceset/tau_hip_adduction_l	/forceset/tau_hip_rotation_l	/forceset/tau_knee_flexion_l	/forceset/tau_ankle_angle_l	/forceset/tau_subtalar_angle_l	/forceset/tau_lumbar_extension	lambda_cid13_p0	lambda_cid13_p1	lambda_cid13_p2	lambda_cid13_p3	lambda_cid13_p4	lambda_cid13_p5	lambda_cid14_p0	/jointset/ground_pelvis/pelvis_tilt/accel	/jointset/ground_pelvis/pelvis_tx/accel	/jointset/ground_pelvis/pelvis_ty/accel	/jointset/hip_l/hip_flexion_l/accel	/jointset/hip_l/hip_adduction_l/accel	/jointset/hip_l/hip_rotation_l/accel	/jointset/back/lumbar_extension/accel	/jointset/patellofemoral_l/patellar_flexion_l/accel	/jointset/knee_l/knee_flexion_l/accel	/jointset/knee_l/knee_adduction_l/accel	/jointset/knee_l/knee_rotation_l/accel	/jointset/ankle_l/ankle_angle_l/accel	/jointset/subtalar_l/subtalar_angle_l/accel	gamma_cid13_p0	gamma_cid13_p1	gamma_cid13_p2	gamma_cid13_p3	gamma_cid13_p4	gamma_cid13_p5	gamma_cid14_p0
0	0.04784252676149864	0.1081620565574071	0.9028583183605252	0.1266922784136757	-0.3701297967462792	-0.2260525617324829	-0.2144969558742783	0.2051545070141896	0.2051545070141877	-0.1745010841851104	-0.1612133805874216	0.09024313228550125	0.07894248514349417	0	0	0	0	0	0	0	0	0	0	0	0	0	0.114752099396254	-0.06213028475675312	-0.009990361123082695	-0.2482358365933809	0.1836140016669922	-0.08439152476475044	-0.04812094869385983	28.34522458967208	32.53571420871598	-6.436162910810623	-19.35258710668786	-439.143831298646	-52.11560023425469	-26.28352678785104	-3.372529999411714	-1.096378888498401	-0.8545148542705364	11.64792470532905	-0.06169318000570035	3.282805433623333	-3.656987142217128	10.83636149305406	10.83636149305131	2.536706366822269	-0.8978182850689118	3.61244875067656	0.9769682289741036	4.134400306521115e-09	6.240214967207151e-07	-1.541661476927892e-07	6.150978316646858e-08	1.152274918579844e-08	3.13097615599257e-07	8.203875394247371e-08
0.01	0.04768266740309444	0.108107069357366	0.9028169336861694	0.1272581302727155	-0.3701319326934522	-0.2258815841953887	-0.2146840001082678	0.205682673337919	0.2056826733379095	-0.1743762924885996	-0.1612463565860386	0.09041858437440614	0.07899072406060985	-0.03175764620160401	-0.01104251280486797	-0.008248371331677919	0.1126845068416872	-0.0004267400141230509	0.03406586020269646	-0.03713776640868659	0.1051165922120768	0.1051165922120646	0.02481531683992389	-0.006522181082442543	0.03479162107337357	0.009561908670134447	0.1087781365351179	-0.07197953202458994	-0.008312445547769089	-0.2383469365869784	0.1652031522892094	-0.07051834963225469	-0.04382612212293099	23.16961637637756	26.83590353662703	-4.863925514971457	-15.6665752759709	-439.7385032854161	-63.18838154063912	-26.28343235397589	-3.045247256358913	-1.114936094146375	-0.8057114371361513	11.0058339194964	-0.03316309722979133	3.449070719158942	-3.701509331788036	10.27179079730993	10.27179079730975	2.432576961447725	-0.5185043928563838	3.367715475611539	0.932841275887901	-5.112113552679568e-11	8.998844273408192e-07	-1.348507752781942e-07	9.451496321427933e-08	-1.74160184286969e-07	3.26414379332696e-07	1.210044549425143e-07
0.02	0.04721165851750735	0.1079403073057429	0.9026939226655927	0.1289362512493672	-0.3701383357777938	-0.2253738291751635	-0.2152342895946604	0.2072465021261857	0.2072465021261847	-0.1740076210999282	-0.1613423716700655	0.09093299201203159	0.07913198988239784	-0.06222990543617828	-0.02235497031639543	-0.01632526924415378	0.222453823519678	-0.0008534274328160962	0.06735549662804055	-0.07264905048111192	0.2071324929051722	0.207132492905161	0.04877593843466117	-0.01260781708586505	0.06779110974449853	0.01860538093446088	0.1028041736742087	-0.08182877929241705	-0.006634529972532624	-0.2284580365804302	0.146792302911476	-0.05664517449973263	-0.03953129555185889	18.0427734668971	21.14000837952507	-3.306541043112231	-12.0310409151916	-439.4615482106475	-74.07602105902056	-26.28286608142065	-3.115452606005717	-1.150367829830342	-0.8202201704301227	11.06488667258977	-0.06168266091969934	3.127560678152856	-3.331690674964849	10.21622318925779	10.21622318925767	2.365767317784945	-0.8105092692649137	3.254022270226789	0.8732809478124843	-4.236642577574706e-09	1.175747357960923e-06	-1.155354028635993e-07	1.275201432620901e-07	-3.598431177597364e-07	3.39731143066135e-07	1.599701559425549e-07
0.03	0.04644080884109641	0.1076599146743077	0.9024906274135934	0.1316986441801658	-0.3701487923220791	-0.2245383497179566	-0.2161311707130611	0.209816007129375	0.2098160071293788	-0.1734031015357733	-0.1614982281354483	0.09176981564347338	0.07936179121419529	-0.09183152520280548	-0.03368228707601022	-0.02433457198387494	0.3295627324956985	-0.001224282375799542	0.09959957780855271	-0.1064676177914307	0.3062781451960886	0.3062781451960985	0.07199608802986743	-0.018474050113274	0.09939030689350414	0.02732085030965656	0.09965173716467304	-0.0765969751403934	-0.005905218451904972	-0.2251128233247388	0.1428891954562936	-0.05913862338331191	-0.03710936713272268	16.6470118265092	22.38570495567508	-3.411935390320896	-11.11092459431689	-439.375345343685	-70.82987735791173	-26.28141804952344	-2.866231413523171	-1.117697627574181	-0.7914766688165203	10.46459109657902	-0.02290709585967345	3.25176206550794	-3.368006447846217	9.690149717014283	9.690149717017476	2.280544098867142	-0.4613124857623944	3.085408665503518	0.8654027139652271	-9.452474852011914e-09	1.298817711407376e-06	-1.205893001291183e-07	1.495041648600762e-07	-4.889711585155184e-07	3.596641072040708e-07	1.803113684409771e-07
0.04	0.04537720001671195	0.1072674920695667	0.9022072008655819	0.1355182658180124	-0.3701625814527671	-0.2233846434034401	-0.2173584508423225	0.2133622513490782	0.2133622513490757	-0.1725702994119648	-0.1617100733643544	0.09291713929205833	0.07967769179606313	-0.120781735030703	-0.04476096497754026	-0.03235152844656467	0.4338995649305511	-0.001519944713662577	0.1310008680893667	-0.138728852652977	0.4024803362072328	0.4024803362072626	0.09443245036422188	-0.02380556979202373	0.1298911131731519	0.03582523094853727	0.09649930065505596	-0.07136517098836682	-0.005175906931331543	-0.2217676100690831	0.1389860880010989	-0.06163207226689105	-0.03468743871364128	15.29526652209872	23.63918046221332	-3.536261453913297	-10.22930297859106	-438.4836921839989	-67.40007745503844	-26.27825049249437	-2.98517061825973	-1.100640058213435	-0.8217509150238325	10.51047136435621	-0.04664413989561252	2.959002498213219	-3.020224185210309	9.627530933303328	9.627530933302987	2.209009865614593	-0.7035665995330761	3.034344096355173	0.831063200549479	-1.468955064876643e-08	1.418737702437877e-06	-1.261456565632996e-07	1.712609460776536e-07	-6.169331190090945e-07	3.797334878451921e-07	2.00268570867201e-07
